<svg width="50" height="50" viewBox="0 0 50 50" fill="none" xmlns="http://www.w3.org/2000/svg">
<circle cx="25" cy="25" r="25" fill="#D9D9D9"/>
<path d="M22.6667 26L24.3333 28L26.6667 25L29.6667 29H20.3333M31 29.6667V20.3333C31 19.5933 30.4 19 29.6667 19H20.3333C19.9797 19 19.6406 19.1405 19.3905 19.3905C19.1405 19.6406 19 19.9797 19 20.3333V29.6667C19 30.0203 19.1405 30.3594 19.3905 30.6095C19.6406 30.8595 19.9797 31 20.3333 31H29.6667C30.0203 31 30.3594 30.8595 30.6095 30.6095C30.8595 30.3594 31 30.0203 31 29.6667Z" fill="#636261"/>
</svg>
