<svg width="157" height="44" viewBox="0 0 157 44" fill="none" xmlns="http://www.w3.org/2000/svg">
<path d="M13.856 35.544C11.936 35.544 10.2293 35.224 8.736 34.584C7.264 33.944 6.02667 33.0693 5.024 31.96C4.02133 30.8293 3.25333 29.5387 2.72 28.088C2.208 26.616 1.952 25.0693 1.952 23.448V22.872C1.952 21.3787 2.19733 19.928 2.688 18.52C3.2 17.112 3.936 15.8427 4.896 14.712C5.856 13.5813 7.05067 12.6853 8.48 12.024C9.90933 11.3627 11.5307 11.032 13.344 11.032C15.2427 11.032 16.928 11.3947 18.4 12.12C19.872 12.824 21.056 13.816 21.952 15.096C22.8693 16.376 23.4027 17.8587 23.552 19.544H21.088C20.9173 18.1787 20.4587 17.0267 19.712 16.088C18.9867 15.1493 18.0693 14.4453 16.96 13.976C15.8507 13.5067 14.6453 13.272 13.344 13.272C11.9787 13.272 10.7413 13.5173 9.632 14.008C8.52267 14.4987 7.584 15.192 6.816 16.088C6.048 16.984 5.45067 18.04 5.024 19.256C4.61867 20.4507 4.416 21.7627 4.416 23.192C4.416 24.7067 4.62933 26.0933 5.056 27.352C5.48267 28.5893 6.10133 29.656 6.912 30.552C7.72267 31.448 8.704 32.1413 9.856 32.632C11.0293 33.1227 12.3627 33.368 13.856 33.368C15.6907 33.368 17.3013 33.016 18.688 32.312C20.096 31.5867 21.184 30.6373 21.952 29.464L20.992 32.472V25.56H23.296V31.384C22.2933 32.6853 20.992 33.7093 19.392 34.456C17.792 35.1813 15.9467 35.544 13.856 35.544ZM12.992 26.072V24.024H25.376V26.072H12.992ZM29.6978 35V18.072H31.6178V25.144H31.4258C31.4258 22.6693 31.9698 20.8453 33.0578 19.672C34.1458 18.4773 35.8524 17.88 38.1778 17.88H38.7218V20.056H37.7298C35.8951 20.056 34.4978 20.536 33.5378 21.496C32.5778 22.4347 32.0978 23.8213 32.0978 25.656V35H29.6978ZM49.9693 35.544C48.5186 35.544 47.2386 35.2987 46.1293 34.808C45.0413 34.296 44.1133 33.624 43.3453 32.792C42.5986 31.9387 42.0226 30.9893 41.6173 29.944C41.2333 28.8987 41.0413 27.832 41.0413 26.744V26.296C41.0413 25.208 41.2439 24.1413 41.6493 23.096C42.0546 22.0293 42.6413 21.08 43.4093 20.248C44.1773 19.416 45.1053 18.7547 46.1933 18.264C47.3026 17.752 48.5613 17.496 49.9693 17.496C51.3986 17.496 52.6573 17.752 53.7453 18.264C54.8546 18.7547 55.7933 19.416 56.5613 20.248C57.3293 21.08 57.9053 22.0293 58.2893 23.096C58.6946 24.1413 58.8973 25.208 58.8973 26.296V26.744C58.8973 27.832 58.7053 28.8987 58.3213 29.944C57.9373 30.9893 57.3613 31.9387 56.5933 32.792C55.8466 33.624 54.9186 34.296 53.8093 34.808C52.6999 35.2987 51.4199 35.544 49.9693 35.544ZM49.9693 33.4C51.3773 33.4 52.5613 33.0907 53.5213 32.472C54.5026 31.832 55.2493 31 55.7613 29.976C56.2733 28.9307 56.5293 27.7787 56.5293 26.52C56.5293 25.24 56.2626 24.088 55.7292 23.064C55.2173 22.0187 54.4706 21.1973 53.4893 20.6C52.5079 19.9813 51.3346 19.672 49.9693 19.672C48.6253 19.672 47.4626 19.9813 46.4813 20.6C45.4999 21.1973 44.7426 22.0187 44.2093 23.064C43.6973 24.088 43.4413 25.24 43.4413 26.52C43.4413 27.7787 43.6973 28.9307 44.2093 29.976C44.7213 31 45.4573 31.832 46.4173 32.472C47.3986 33.0907 48.5826 33.4 49.9693 33.4ZM63.3115 35V11.448H68.5595V35H63.3115ZM77.4875 35L70.6395 24.952H76.3995L83.5675 35H77.4875ZM67.1515 27.512V23.384H72.9115C73.6795 23.384 74.3408 23.2347 74.8955 22.936C75.4715 22.616 75.9088 22.1787 76.2075 21.624C76.5275 21.048 76.6875 20.3867 76.6875 19.64C76.6875 18.8933 76.5275 18.2427 76.2075 17.688C75.9088 17.112 75.4715 16.6747 74.8955 16.376C74.3408 16.056 73.6795 15.896 72.9115 15.896H67.1515V11.448H72.4955C74.4368 11.448 76.1222 11.7467 77.5515 12.344C78.9808 12.92 80.0795 13.784 80.8475 14.936C81.6155 16.088 81.9995 17.5387 81.9995 19.288V19.8C81.9995 21.528 81.6048 22.968 80.8155 24.12C80.0475 25.2507 78.9488 26.104 77.5195 26.68C76.1115 27.2347 74.4368 27.512 72.4955 27.512H67.1515ZM94.118 35.608C92.6247 35.608 91.302 35.352 90.15 34.84C89.0193 34.328 88.07 33.6453 87.302 32.792C86.5553 31.9173 85.9793 30.9467 85.574 29.88C85.19 28.792 84.998 27.6827 84.998 26.552V25.912C84.998 24.7387 85.19 23.6187 85.574 22.552C85.9793 21.464 86.5553 20.4933 87.302 19.64C88.0487 18.7867 88.9767 18.1147 90.086 17.624C91.2167 17.112 92.4967 16.856 93.926 16.856C95.8033 16.856 97.382 17.2827 98.662 18.136C99.9633 18.968 100.955 20.0667 101.638 21.432C102.321 22.776 102.662 24.248 102.662 25.848V27.576H87.142V24.664H99.558L97.894 26.008C97.894 24.9627 97.7447 24.0667 97.446 23.32C97.1473 22.5733 96.6993 22.008 96.102 21.624C95.526 21.2187 94.8007 21.016 93.926 21.016C93.03 21.016 92.2727 21.2187 91.654 21.624C91.0353 22.0293 90.566 22.6267 90.246 23.416C89.926 24.184 89.766 25.1333 89.766 26.264C89.766 27.3093 89.9153 28.2267 90.214 29.016C90.5127 29.784 90.982 30.3813 91.622 30.808C92.262 31.2347 93.094 31.448 94.118 31.448C95.0567 31.448 95.8247 31.2667 96.422 30.904C97.0193 30.5413 97.4247 30.0933 97.638 29.56H102.342C102.086 30.7333 101.585 31.7787 100.838 32.696C100.091 33.6133 99.1527 34.328 98.022 34.84C96.8913 35.352 95.59 35.608 94.118 35.608ZM106.055 35V17.464H110.119V24.984H109.831C109.831 23.192 110.055 21.6987 110.503 20.504C110.972 19.3093 111.676 18.4133 112.615 17.816C113.553 17.2187 114.695 16.92 116.039 16.92H116.263C118.311 16.92 119.868 17.592 120.935 18.936C122.023 20.2587 122.567 22.2747 122.567 24.984V35H117.447V24.696C117.447 23.7573 117.169 22.9893 116.615 22.392C116.06 21.7947 115.313 21.496 114.375 21.496C113.415 21.496 112.636 21.8053 112.039 22.424C111.463 23.0213 111.175 23.8107 111.175 24.792V35H106.055ZM134.898 35.224C133.127 35.224 131.698 35.0107 130.61 34.584C129.522 34.136 128.722 33.4 128.21 32.376C127.719 31.3307 127.474 29.9227 127.474 28.152V12.728H132.242V28.344C132.242 29.176 132.455 29.816 132.882 30.264C133.33 30.6907 133.959 30.904 134.77 30.904H137.362V35.224H134.898ZM124.818 21.208V17.464H137.362V21.208H124.818ZM147.336 35.544C144.84 35.544 142.888 35.032 141.48 34.008C140.072 32.984 139.325 31.544 139.24 29.688H143.784C143.869 30.2427 144.2 30.744 144.776 31.192C145.373 31.6187 146.258 31.832 147.432 31.832C148.328 31.832 149.064 31.6827 149.64 31.384C150.237 31.064 150.536 30.616 150.536 30.04C150.536 29.528 150.312 29.1227 149.864 28.824C149.416 28.504 148.616 28.28 147.464 28.152L146.088 28.024C143.976 27.8107 142.386 27.224 141.32 26.264C140.274 25.304 139.752 24.0773 139.752 22.584C139.752 21.3467 140.061 20.312 140.68 19.48C141.298 18.648 142.152 18.0187 143.24 17.592C144.349 17.1653 145.608 16.952 147.016 16.952C149.277 16.952 151.101 17.4533 152.488 18.456C153.874 19.4373 154.6 20.8667 154.664 22.744H150.12C150.034 22.168 149.736 21.688 149.224 21.304C148.712 20.8987 147.954 20.696 146.952 20.696C146.162 20.696 145.533 20.8453 145.064 21.144C144.594 21.4427 144.36 21.848 144.36 22.36C144.36 22.8507 144.562 23.224 144.968 23.48C145.373 23.736 146.034 23.9173 146.952 24.024L148.328 24.152C150.482 24.3867 152.157 24.984 153.352 25.944C154.546 26.904 155.144 28.1947 155.144 29.816C155.144 30.9893 154.824 32.0133 154.184 32.888C153.544 33.7413 152.637 34.4027 151.464 34.872C150.29 35.32 148.914 35.544 147.336 35.544Z" fill="white"/>
<path d="M57 16H60L50 7L40 16H43L50 9.69L57 16ZM45 8.81V7H42V11.5L45 8.81Z" fill="white"/>
</svg>
